<svg xmlns="http://www.w3.org/2000/svg" viewBox="0 0 252.01 159.06"><defs><style>.cls-1{fill:#231f20;}</style></defs><title>init</title><g id="Layer_2" data-name="Layer 2"><g id="Layer_2-2" data-name="Layer 2"><path class="cls-1" d="M55.7,141.09c1,6.22,4.67,12.43,12.64,12.9a11.56,11.56,0,0,1-5.1,1.39A7.56,7.56,0,0,1,57,152.1c-1.66-2.27-2.38-5.43-1.33-11m46-133.95c10.64,7.18-5,37.54-19.71,65.66-30.11,57.67-34.18,72.9-27.9,81.47a11.2,11.2,0,0,0,9.18,4.79c8.3,0,19.72-8.64,30.67-34.07-4.66,7.59-8.93,14.4-12,18.55a16.39,16.39,0,0,1-12.63,6.8c-5.29,0-10-3.51-10.21-12.16C58.66,122.08,86.4,73,99.89,40.38c9.35-22.63,6.4-31.63,1.77-33.24Z"/><path class="cls-1" d="M112.47,123.18a20.33,20.33,0,0,0,2.75,4.68,13.94,13.94,0,0,0,11.29,5.43,17.11,17.11,0,0,0,1.79-.1,11.12,11.12,0,0,1-6,1.89,9.35,9.35,0,0,1-6.68-2.82,11.66,11.66,0,0,1-3.17-8.45q0-.32,0-.63m25.59-56.59C118,104.46,109,106.75,108.78,123.77c-.1,8.81,6.16,15,13.53,15,4.3,0,9-2.1,13-7,5.47-6.7,7.94-13.3,11.34-20.39a98.41,98.41,0,0,1-9.66,13.8,14.84,14.84,0,0,1-10.47,4.46,10.22,10.22,0,0,1-8.38-4c-5.21-6.74-4.14-13.8,2.45-25.6,4-7.23,9.16-16.28,13.34-24.23,2.36-5.44,4.14-9.18,4.14-9.18Z"/><path class="cls-1" d="M156.45,127.72a15.42,15.42,0,0,0,10.71,4,22.45,22.45,0,0,0,7.37-1.32,20.34,20.34,0,0,1-8.77,3.36c-.57.06-1.14.08-1.67.08-3.24,0-5.48-1-6.65-2.89a7.81,7.81,0,0,1-1-3.22m63.93-57.6c-5.52,12.72-27.44,45.07-40.47,53.5-4.9,3.17-9.2,4.42-12.75,4.42-5,0-8.48-2.45-10.09-5.49-1.75-3.31-2-6.44,1.23-14.56-10.38,20.14-5.15,29.53,5.79,29.53q1,0,2-.1c22.23-2.15,46.78-49.32,54.26-67.29Z"/><path class="cls-1" d="M226.5,56.78c1.68-3.37,3.47-8.55,4-9.73,5.06-11.73-12.09-19.25-14.72-10.58-1.48,4.88-4.08,12.57-5.82,17.24-16.73-2.85-24.53-6.67-27.74.46-3.63,8,1.44,9.45,7.13,9.66,6.21.23,15.87,1.38,15.87,1.38-14.61,32.89-32.48,56.4-28.66,44.76,6.44-19.62,17.25-36.07,8.2-39.47-13.26-5-32.27,25.37-41.92,41.62-3.55,6-11,5.82.31-16.55s24.6-51.5,19.16-59.32c-5.23-7.51-13.87-7.13-22.84,3.83-8.84,10.8-47,78-48.44,69.59-.94-5.57,30.35-65.3,35.26-86.45S96.52-10.36,87.93,11.41C79.47,32.88,77.51,54.94,63.1,85.6c-15.53,33-33.09,45.11-11,2.91C63.91,65.86,46.51,73,31.65,80.79a25.47,25.47,0,0,1-18.09.41c-2.89-1-11.1-4.45-12.48-8.59-1.51-8.1,44.1-5.43,48.56-6.28,4.79-.91,8-1.72,9.39-8.79,3.6-18-63.28-1.25-58.82,13.92-.1,4.9,9.81,8.87,13,10.14a25.72,25.72,0,0,0,18.67-.33c6.6-2.82,8,1.72,2.45,11.23s-17.17,27.9-6.44,31.58S52.07,119.78,65.56,87s17.78-51.5,23.3-72,28.74-13.41,17,16C100.24,45.09,73,106.21,64.1,126.76c-7.66,17.78,7.69,27.06,18.32,10.5,19.47-30.35,52.88-85.84,61-89.52,6.72-3,2.91,9.81-21.46,54.42-12.56,23,7.05,29.28,14.72,19.93,7.22-8.81,13.88-22.44,24.68-36.33,11.8-15.18,15.54-11.46,10,0-3.94,8.11-13.8,23-12.88,32.19s14.94,9.5,26.06-1.92c15.74-16.16,27.84-35.15,35.87-49.43,35.41,2.68,27.74,10.27,27.74,10.27S265.59,64.91,226.5,56.78Z"/><path class="cls-1" d="M230.72,65.67"/><path class="cls-1" d="M19.18,124.42a10.7,10.7,0,0,0,1.37,1.88c1.58,1.73,4.57,3.79,9.82,3.87a11.25,11.25,0,0,1-5.84,2,6.45,6.45,0,0,1-2.7-.58,4.07,4.07,0,0,1-2.38-2.67,11.11,11.11,0,0,1-.29-4.51M34,82.23c3.83,2.45-4.29,10.58-10.65,21.46-5.13,8.78-13.21,26.68-3,31.27a10.15,10.15,0,0,0,4.2.91c9,0,17.1-11.64,17.1-11.64a33.38,33.38,0,0,1-10.92,2.27c-7.09,0-10-4.16-9.47-10.24.87-9.78,13.49-27.28,14.26-30.5S34,82.23,34,82.23Z"/><path class="cls-1" d="M31.09,79.81s-2.27.86-6.72-.84c-8.32-3.18-10.53-9.23-10.53-10.31,0-.57.9-.73.9-.73a2.38,2.38,0,0,0-1.3.21c-3.58,1.38.88,9.38,10.32,11.73C28.77,81.12,31.09,79.81,31.09,79.81Z"/><path class="cls-1" d="M247.17,76.4c-.64,3.39-5.31,2.49-7.12-.45-2-3.27,2.37-3.79,5-2,.51-.24-4.12-3.56-13.73-5.25C231.35,68.72,248.26,70.65,247.17,76.4Z"/></g></g></svg>