<svg xmlns="http://www.w3.org/2000/svg" viewBox="0 0 494.93 537.45"><title>logo</title><g id="Layer_2" data-name="Layer 2"><g id="Layer_2-2" data-name="Layer 2"><path d="M356.86,256.69a4.15,4.15,0,0,1-6.57.21l-95-115.23v228.8h-.75C152.65,370.49,70,290.26,70,191.29s82.62-179.2,184.53-179.2h.75V119.36l98.06,118.25,84.17-118.32C408.26,49.33,337.58,0,255,0c-108.78,0-197,85.64-197,191.29s88.19,191.29,197,191.29,197-85.64,197-191.29a186.16,186.16,0,0,0-8.32-55.14Z"/><path d="M0,433H18.53a52.91,52.91,0,0,1,12.79,1.5,29.26,29.26,0,0,1,10.57,4.87A23.86,23.86,0,0,1,49,448.12a29.35,29.35,0,0,1,2.65,13.06,26.66,26.66,0,0,1-2.57,12,25.79,25.79,0,0,1-6.93,8.71,30.62,30.62,0,0,1-10.06,5.34,39,39,0,0,1-12,1.82H0Zm12.35,44.65h6.41a34.46,34.46,0,0,0,8-.87,17,17,0,0,0,6.37-2.89,13.86,13.86,0,0,0,4.24-5.3,18.81,18.81,0,0,0,1.54-8,15.67,15.67,0,0,0-1.54-7.17,14.34,14.34,0,0,0-4.16-5,18.23,18.23,0,0,0-6.14-3,27.26,27.26,0,0,0-7.4-1H12.35Z"/><path d="M73.79,433H84l24.39,56.05H94.45l-4.83-11.88H67.85l-4.67,11.88H49.56Zm4.75,16.31-6.81,17.42h13.7Z"/><path d="M114,433H135.7a38.28,38.28,0,0,1,8.12.83,19.28,19.28,0,0,1,6.73,2.77,13.84,13.84,0,0,1,4.59,5.23,17.7,17.7,0,0,1,1.7,8.19,16.45,16.45,0,0,1-3.09,10.09,13.9,13.9,0,0,1-9,5.27L159,489.05H144.17l-11.72-22.41h-6.1v22.41H114Zm12.35,23.2h7.28q1.66,0,3.52-.12a11,11,0,0,0,3.36-.71A5.83,5.83,0,0,0,143,453.5a5.67,5.67,0,0,0,1-3.56,5.92,5.92,0,0,0-.87-3.4,5.83,5.83,0,0,0-2.22-1.94,9.87,9.87,0,0,0-3.09-.91,25.13,25.13,0,0,0-3.4-.24h-8.08Z"/><path d="M167.37,433h12.35v23.28L201.49,433h16.15l-24.94,26,27.08,30H202.52l-22.8-26.6v26.6H167.37Z"/><path d="M247.49,433h18.68l12.91,36.58h.16l13-36.58h18.61v56.05H298.48v-43h-.16l-14.73,43h-9.42l-14.17-43h-.16v43H247.49Z"/><path d="M317.64,461a31.66,31.66,0,0,1,2.26-12.19,26.75,26.75,0,0,1,6.29-9.3,27.74,27.74,0,0,1,9.58-5.9,36.67,36.67,0,0,1,24.23,0,27.75,27.75,0,0,1,9.58,5.9,26.74,26.74,0,0,1,6.29,9.3,34.07,34.07,0,0,1,0,24.39,26.73,26.73,0,0,1-6.29,9.3,27.73,27.73,0,0,1-9.58,5.9,36.67,36.67,0,0,1-24.23,0,27.71,27.71,0,0,1-9.58-5.9,26.74,26.74,0,0,1-6.29-9.3A31.66,31.66,0,0,1,317.64,461Zm12.83,0a20.54,20.54,0,0,0,1.23,7.24,16.57,16.57,0,0,0,3.52,5.7,16.06,16.06,0,0,0,5.5,3.76,19.75,19.75,0,0,0,14.33,0,16.07,16.07,0,0,0,5.5-3.76,16.6,16.6,0,0,0,3.52-5.7,21.87,21.87,0,0,0,0-14.45,16.54,16.54,0,0,0-3.52-5.74,16.11,16.11,0,0,0-5.5-3.76,19.74,19.74,0,0,0-14.33,0,16.09,16.09,0,0,0-5.5,3.76,16.5,16.5,0,0,0-3.52,5.74A20.64,20.64,0,0,0,330.46,461Z"/><path d="M372.43,461a31.66,31.66,0,0,1,2.26-12.19,26.75,26.75,0,0,1,6.29-9.3,27.74,27.74,0,0,1,9.58-5.9,36.67,36.67,0,0,1,24.23,0,27.75,27.75,0,0,1,9.58,5.9,26.74,26.74,0,0,1,6.29,9.3,34.07,34.07,0,0,1,0,24.39,26.73,26.73,0,0,1-6.29,9.3,27.73,27.73,0,0,1-9.58,5.9,36.67,36.67,0,0,1-24.23,0,27.71,27.71,0,0,1-9.58-5.9,26.74,26.74,0,0,1-6.29-9.3A31.66,31.66,0,0,1,372.43,461Zm12.83,0a20.54,20.54,0,0,0,1.23,7.24A16.57,16.57,0,0,0,390,474a16.06,16.06,0,0,0,5.5,3.76,19.75,19.75,0,0,0,14.33,0,16.07,16.07,0,0,0,5.5-3.76,16.6,16.6,0,0,0,3.52-5.7,21.87,21.87,0,0,0,0-14.45,16.54,16.54,0,0,0-3.52-5.74,16.11,16.11,0,0,0-5.5-3.76,19.74,19.74,0,0,0-14.33,0,16.09,16.09,0,0,0-5.5,3.76,16.5,16.5,0,0,0-3.52,5.74A20.64,20.64,0,0,0,385.25,461Z"/><path d="M439.72,433h16.78l23.83,39h.16V433h12.35v56.05H476.7l-24.46-39.9h-.16v39.9H439.72Z"/><path d="M.13,516.61H14.28v4.24H4.72v3.89h9V529h-9v4.24h10.1v4.24H.13Z"/><path d="M39.1,516.61h6.24l8.86,14.48h.06V516.61h4.59v20.84h-6l-9.1-14.83h-.06v14.83H39.1Z"/><path d="M87.13,520.67H81.19v-4.06H97.67v4.06H91.72v16.78H87.13Z"/><path d="M120.77,516.61h14.16v4.24h-9.57v3.89h9V529h-9v4.24h10.1v4.24H120.77Z"/><path d="M159.74,516.61h8.06a14.23,14.23,0,0,1,3,.31,7.16,7.16,0,0,1,2.5,1,5.14,5.14,0,0,1,1.71,1.94,6.59,6.59,0,0,1,.63,3,6.12,6.12,0,0,1-1.15,3.75,5.17,5.17,0,0,1-3.36,2l5.3,8.8H171l-4.36-8.33h-2.27v8.33h-4.59Zm4.59,8.62H167q.62,0,1.31,0a4.11,4.11,0,0,0,1.25-.26,2.16,2.16,0,0,0,.93-.69,2.1,2.1,0,0,0,.37-1.32,2.2,2.2,0,0,0-.32-1.27,2.16,2.16,0,0,0-.82-.72,3.66,3.66,0,0,0-1.15-.34,9.33,9.33,0,0,0-1.27-.09h-3Z"/><path d="M202.92,520.67H197v-4.06h16.48v4.06h-5.95v16.78h-4.59Z"/><path d="M240.54,516.61h3.8l9.07,20.84h-5.18l-1.8-4.42h-8.09l-1.74,4.42h-5.06Zm1.77,6.06-2.53,6.48h5.09Z"/><path d="M276,516.61h4.59v20.84H276Z"/><path d="M305.41,516.61h6.24l8.86,14.48h.06V516.61h4.59v20.84h-6l-9.1-14.83H310v14.83h-4.59Z"/><path d="M350,516.61h6.95l4.8,13.6h.06l4.83-13.6h6.92v20.84H369v-16h-.06l-5.47,16h-3.5l-5.27-16h-.06v16H350Z"/><path d="M398.57,516.61h14.16v4.24h-9.57v3.89h9V529h-9v4.24h10.1v4.24H398.57Z"/><path d="M437.54,516.61h6.24l8.86,14.48h.06V516.61h4.59v20.84h-6l-9.1-14.83h-.06v14.83h-4.59Z"/><path d="M484.39,520.67h-5.95v-4.06h16.48v4.06H489v16.78h-4.59Z"/></g></g></svg>